<svg viewBox="0 0 50 50" xmlns="http://www.w3.org/2000/svg"><g fill="#2bb6bd"><path d="m26.34 15.39 8.07-8.07-.23 6.29 1.5.05.32-9-9 .33.05 1.5 6.3-.23-8.07 8.07z"/><path d="m31.98 17.4-1.5-.05-.32 9 9-.33-.06-1.5-6.29.23 8.07-8.06-1.06-1.06-8.07 8.06z"/><path d="m43.28 37.29a7.06 7.06 0 0 0 -2.69-4.76c-2.45-2-4.78-3.08-6.75-3.08-2.62 0-4.25 1.63-5.69 3.07-.72-.26-2.6-1.25-6.48-5.13-4.05-4.05-5-5.87-5.25-6.48 3-3.06 5.06-6.1 0-12.38a7.28 7.28 0 0 0 -9.73-1.42l-2 1.33a7.7 7.7 0 0 0 -3.54 6.71 20.12 20.12 0 0 0 1.32 6 46.69 46.69 0 0 0 10.4 15c8.68 8.62 16.84 11.69 21.58 11.69a6.32 6.32 0 0 0 5.13-2c2.74-3.01 3.99-5.84 3.7-8.55zm-4.87 7.48a4.87 4.87 0 0 1 -4 1.5c-4.44 0-12.15-3-20.49-11.24a45.11 45.11 0 0 1 -10-14.49 18.47 18.47 0 0 1 -1.23-5.48 6.18 6.18 0 0 1 2.83-5.33l2-1.33a5.74 5.74 0 0 1 7.61 1.16c4.31 5.33 2.92 7.45.12 10.31l-.52.52v.32c0 .76.75 2.79 5.78 7.82 4.49 4.47 6.68 5.54 7.75 5.66h.37l.62-.62c1.34-1.3 2.61-2.57 4.59-2.57 1.58 0 3.63 1 5.82 2.76a5.51 5.51 0 0 1 2.08 3.7c.26 2.21-.88 4.67-3.33 7.31z"/></g></svg>