<svg height="341" viewBox="0 0 442 341" width="442" xmlns="http://www.w3.org/2000/svg"><path d="m1926.76303 82.7168454c-26.86135-13.3871967-54.98266-24.0898872-83.95353-31.9518846-78.72644-21.3012563-149.34555-1.544341-206.04353 57.0873672-49.29975 52.011801-87.56214 113.435267-112.4892 180.5814-34.2428 101.234221-9.97415 187.610816 63.31185 249.331206 53.23575 44.186189 113.99346 78.45816 179.37467 101.180968 67.41885 24.230179 133.77095 15.975942 188.54876-25.987533 4.0116-64.744867 14.30057-128.948949 30.72252-191.711307 8.27584-34.388209 25.2651-66.075654 49.33737-92.021428-77.76637-60.86834-117.60963-150.386869-108.80891-246.5087886zm29.65576 176.1081366c31.41591 29.076215 40.3233 60.708581 23.94863 99.743133-17.81479 42.602513-38.72317 83.554178-68.43227 119.553301-38.7765 47.075777-64.59195 53.625913-125.66361 27.957899-41.6034-13.579551-81.87337-39.726843-119.10308-71.518968-27.94895-23.91066-36.32297-53.785672-24.9087-87.068885 19.09489-55.969051 46.51047-107.571345 88.32722-150.866148 20.61261-23.179566 53.55551-30.992432 82.40675-19.543903 52.43095 18.798359 102.08835 43.348057 143.42506 81.743571z" fill="#fff" fill-opacity=".2" transform="matrix(.17364818 .98480775 -.98480775 .17364818 326.691398 -1547.254918)"/></svg>