<?xml version="1.0" encoding="UTF-8"?>
<svg width="402px" height="251px" viewBox="0 0 402 251" version="1.1" xmlns="http://www.w3.org/2000/svg" xmlns:xlink="http://www.w3.org/1999/xlink">
    <title>Shape</title>
    <g id="Symbols" stroke="none" stroke-width="1" fill="none" fill-rule="evenodd" fill-opacity="0.2">
        <g id="bloc/testimonial/big" fill="#FFFFFF" fill-rule="nonzero">
            <g id="Group-25">
                <path d="M274.896761,-310.143435 C246.097865,-324.496266 215.948138,-335.970953 184.887561,-344.400046 C100.482491,-367.237786 24.7695426,-346.055782 -36.0181192,-283.194901 C-88.8739175,-227.43143 -129.896222,-161.577418 -156.621298,-89.5879572 C-193.334072,18.9484041 -167.314894,111.555441 -88.7426952,177.727794 C-31.6669846,225.101184 33.4732469,261.845231 103.570482,286.207061 C175.85233,312.184991 246.990478,303.335366 305.719479,258.345018 C310.02044,188.93003 321.051559,120.094834 338.658043,52.8053543 C347.530837,15.9366845 365.745543,-18.0364117 391.554174,-45.8536843 C308.178435,-111.112527 265.461235,-207.088132 274.896761,-310.143435 Z M306.691624,-121.332416 C340.373593,-90.1589007 349.923489,-56.2448562 332.367692,-14.3946969 C313.2679,31.2807839 290.851378,75.1863399 258.999329,113.782121 C217.425829,164.253527 189.748286,171.276133 124.271454,143.756655 C79.6671488,129.197596 36.492469,101.16427 -3.42266555,67.078942 C-33.3876089,41.4435784 -42.365655,9.41364749 -30.1280636,-26.2703219 C-9.65583126,-86.2764848 19.7372621,-141.600911 64.5703071,-188.018618 C86.6697214,-212.870152 121.988832,-221.24657 152.921142,-208.972245 C209.134003,-188.817939 262.373244,-162.497443 306.691624,-121.332416 L306.691624,-121.332416 Z" id="Shape" transform="translate(109.277087, -26.327615) rotate(-100.000000) translate(-109.277087, 26.327615) "></path>
            </g>
        </g>
    </g>
</svg>